# xmcd CD database file
#
# Track frame offsets:
#	150
#	37160
#	69947
#	99533
#	134812
#	164316
#	199150
#	240033
#	281498
#
# Disc length: 4238 seconds
#
# Revision: 0
# Processed by: cddbd v1.5.2PL0 Copyright (c) Steve Scherf et al.
# Submitted via: CDex 1.70beta2
#
DISCID=7c108c09
DTITLE=Dave Brubeck - My Romance [CD2]
DYEAR=2006
DGENRE=Jazz
TTITLE0=Blue Moon
TTITLE1=Let's Fall In Love
TTITLE2=These Foolish Things
TTITLE3=Perdido
TTITLE4=Stardust
TTITLE5=The Way You Look Tonight
TTITLE6=How High The Moon
TTITLE7=I Remember You
TTITLE8=Out Of Nowhere
EXTD=YEAR: 2006
EXTT0=
EXTT1=
EXTT2=
EXTT3=
EXTT4=
EXTT5=
EXTT6=
EXTT7=
EXTT8=
PLAYORDER=
